# xmcd CD database file
#
# Track frame offsets:
#	150
#	14590
#	32462
#	52930
#	73999
#	90950
#	120517
#	137170
#	156528
#	174239
#	203428
#	218952
#
# Disc length: 3225 seconds
#
# Revision: 0
# Processed by: cddbd v1.5.1PL2 Copyright (c) Steve Scherf et al.
# Submitted via: CDex 1.51
#
DISCID=9e0c970c
DTITLE=Jim Scott - For a Time
DYEAR=1999
DGENRE=New Age
TTITLE0=Seed for the Belly
TTITLE1=Harmony
TTITLE2=Whisper in the Wind
TTITLE3=Companeros
TTITLE4=Nothing but Peace
TTITLE5=An Enchanted Isle
TTITLE6=Inverness
TTITLE7=Let All Our Hearts
TTITLE8=I Will Shelter You
TTITLE9=The Allagash Suite
TTITLE10=For a Time
TTITLE11=Gently Homeward
EXTD=YEAR: 1999
EXTT0=
EXTT1=
EXTT2=
EXTT3=
EXTT4=
EXTT5=
EXTT6=
EXTT7=
EXTT8=
EXTT9=
EXTT10=
EXTT11=
PLAYORDER=
